<?xml version="1.0" standalone="no"?>
<!DOCTYPE svg PUBLIC "-//W3C//DTD SVG 20010904//EN"
 "http://www.w3.org/TR/2001/REC-SVG-20010904/DTD/svg10.dtd">
<svg version="1.0" xmlns="http://www.w3.org/2000/svg"
 width="864.000000pt" height="864.000000pt" viewBox="0 0 864.000000 864.000000"
 preserveAspectRatio="xMidYMid meet">
<metadata>
Created by potrace 1.14, written by Peter Selinger 2001-2017
</metadata>
<g transform="translate(0.000000,864.000000) scale(0.100000,-0.100000)"
fill="#000000" stroke="none">
<path d="M4218 7805 c-2 -3 -13 -6 -24 -8 -144 -27 -278 -108 -384 -234 -50
-59 -97 -154 -120 -245 -21 -80 -21 -264 0 -318 1 -3 2 -9 1 -14 -1 -5 19 -51
44 -103 37 -77 61 -110 123 -172 80 -81 136 -118 237 -156 l60 -23 0 -333 0
-334 -965 -2 c-1073 -1 -1101 -2 -1221 -38 -285 -83 -511 -343 -566 -650 -2
-11 -5 -150 -8 -310 -2 -159 -4 -293 -4 -296 -1 -4 -124 -7 -275 -7 -297 0
-334 -5 -440 -59 -69 -35 -167 -136 -205 -211 -17 -34 -29 -62 -26 -62 3 0 1
-8 -4 -18 -6 -11 -13 -32 -16 -48 -7 -36 -7 -1576 -1 -1623 23 -151 119 -286
256 -359 93 -50 156 -58 447 -57 169 0 263 -4 264 -10 0 -5 2 -140 4 -300 2
-159 6 -301 9 -315 6 -27 9 -40 21 -85 16 -60 58 -151 102 -219 60 -93 217
-246 252 -246 5 0 11 -3 13 -7 3 -9 93 -53 143 -71 42 -16 146 -41 170 -42
172 -6 4389 -3 4435 3 178 23 346 107 470 237 71 74 74 77 111 135 48 75 84
164 105 257 2 10 7 28 10 41 3 12 7 155 9 317 2 162 4 297 4 300 1 3 118 5
261 5 288 -1 348 7 445 54 52 26 130 91 173 145 28 34 70 133 82 189 9 43 12
270 11 840 0 849 0 836 -57 948 -23 46 -104 137 -160 180 -33 25 -143 66 -199
74 -27 4 -164 8 -304 8 l-254 2 -2 295 c-2 330 -10 385 -72 520 -64 140 -168
265 -280 337 -15 9 -30 20 -33 23 -16 16 -190 94 -190 85 0 -2 -19 3 -42 11
-66 23 -189 26 -1203 28 l-940 1 0 334 0 333 60 23 c109 41 147 67 246 166
121 122 179 271 174 450 -3 120 -6 136 -32 205 -31 81 -47 114 -55 114 -5 0
-8 5 -8 11 0 26 -109 144 -173 188 -122 82 -234 117 -380 119 -52 0 -97 -1
-99 -3z m175 -330 c49 -8 132 -57 169 -98 71 -81 100 -210 69 -307 -33 -104
-107 -182 -205 -214 -67 -23 -111 -25 -179 -10 -180 42 -293 238 -236 412 17
51 68 128 96 143 13 7 23 16 23 21 0 11 82 47 130 57 38 8 73 7 133 -4z m2162
-1954 c141 -44 250 -133 311 -252 39 -77 52 -139 53 -261 1 -60 4 -115 7 -122
3 -8 1 -17 -4 -20 -5 -3 -6 -25 -3 -48 3 -24 4 -61 1 -83 -3 -22 -2 -52 1 -67
4 -15 3 -30 -2 -34 -5 -3 -7 -9 -4 -14 5 -8 9 -212 5 -235 -1 -5 -2 -14 -1
-19 1 -6 2 -39 1 -75 -2 -87 -2 -90 3 -129 3 -18 0 -35 -4 -38 -5 -3 -7 -10
-3 -15 5 -9 8 -278 3 -304 -1 -5 0 -14 1 -20 4 -21 2 -356 -2 -360 -3 -3 -2
-24 1 -48 3 -23 4 -60 1 -82 -3 -22 -2 -52 1 -67 4 -15 3 -30 -2 -34 -5 -3 -7
-9 -4 -14 7 -11 10 -229 3 -235 -3 -3 -2 -24 1 -48 3 -23 4 -60 1 -82 -3 -22
-2 -52 1 -67 4 -15 3 -30 -2 -34 -5 -3 -7 -9 -4 -14 5 -8 9 -212 5 -235 -1 -5
-2 -14 -1 -19 1 -6 2 -39 1 -75 -1 -36 -1 -77 0 -91 0 -14 2 -49 3 -78 2 -30
0 -55 -4 -57 -3 -3 -3 -24 0 -47 3 -24 4 -61 1 -83 -3 -22 -2 -52 1 -67 4 -15
3 -30 -2 -34 -5 -3 -7 -10 -4 -15 7 -11 8 -195 1 -299 -13 -202 -154 -372
-362 -435 -73 -22 -4381 -22 -4463 0 -108 28 -214 101 -288 198 -19 25 -65
127 -69 156 -12 73 -16 107 -15 121 2 36 -1 104 -5 111 -2 4 0 10 6 14 6 4 8
10 5 15 -5 9 -9 152 -5 175 2 6 1 14 0 20 -2 12 -2 286 1 300 1 6 0 15 -1 20
-1 8 -1 201 1 280 0 6 -1 61 -2 123 -1 62 0 114 3 117 3 3 2 24 -1 48 -3 23
-4 60 -1 82 3 22 2 52 -1 67 -4 15 -3 30 2 34 5 3 7 9 4 14 -5 9 -9 152 -5
175 2 6 1 15 0 20 -1 8 -1 201 1 280 0 6 -1 61 -2 123 -1 62 0 114 3 117 3 3
2 24 -1 48 -3 23 -4 60 -1 82 3 22 2 52 -1 67 -4 15 -3 30 2 34 5 3 7 10 3 15
-3 6 -5 41 -4 77 2 80 2 61 -1 200 -1 62 0 114 3 117 3 3 2 24 -1 48 -3 23 -4
60 -1 82 3 22 2 52 -1 67 -4 15 -3 30 2 34 5 3 7 9 4 14 -5 8 -9 212 -5 235 1
6 2 14 1 19 -4 18 -2 123 3 183 19 219 206 411 426 435 14 2 1002 3 2195 3
1722 -1 2178 -3 2210 -14z m-5161 -2176 l0 -890 -262 -3 c-276 -2 -287 -1
-337 45 -52 46 -50 24 -49 849 1 513 4 777 11 794 15 35 55 69 96 84 24 8 116
12 288 11 l253 0 0 -890z m6430 862 c75 -57 70 -3 70 -862 0 -861 4 -814 -71
-865 l-36 -25 -271 0 -270 0 -1 880 c0 484 1 885 2 891 3 7 91 10 272 9 l268
-1 37 -27z"/>
<path d="M3236 4548 c-166 -45 -285 -147 -344 -298 -21 -54 -39 -145 -36 -185
7 -99 44 -213 88 -270 71 -92 166 -160 256 -186 68 -19 70 -19 145 -20 154 -1
273 57 386 187 28 33 75 126 83 165 3 13 8 35 11 49 13 57 5 172 -15 225 -6
17 -11 31 -11 32 0 2 -8 22 -18 45 -19 42 -40 71 -104 136 -64 68 -184 121
-287 129 -36 2 -69 5 -75 7 -5 1 -41 -6 -79 -16z m201 -344 c49 -37 75 -95 68
-147 -20 -134 -171 -189 -265 -97 -56 55 -65 122 -26 192 46 83 151 107 223
52z"/>
<path d="M5289 4566 c-2 -2 -26 -7 -54 -10 -72 -7 -195 -55 -230 -90 -7 -6
-29 -26 -49 -44 -65 -59 -129 -179 -141 -263 -32 -222 71 -426 262 -519 37
-18 72 -33 78 -35 12 -2 103 -16 129 -19 10 -2 42 1 70 6 28 5 60 10 72 12 11
2 49 17 85 35 125 62 221 178 254 308 15 61 25 150 17 157 -2 3 -6 23 -7 46
-6 78 -46 163 -112 241 -79 92 -184 149 -303 164 -30 4 -58 9 -61 11 -3 2 -8
2 -10 0z m86 -353 c77 -38 105 -154 55 -226 -34 -49 -75 -71 -135 -71 -133 0
-203 164 -113 264 52 58 121 69 193 33z"/>
<path d="M3465 2637 c-77 -26 -117 -80 -117 -159 0 -74 37 -120 132 -164 61
-29 252 -102 278 -108 9 -1 24 -6 32 -9 16 -6 75 -19 185 -42 154 -32 487 -38
625 -10 13 2 42 7 65 11 22 3 58 10 80 15 22 6 47 12 55 13 8 2 22 6 30 8 8 3
35 11 60 18 77 21 273 101 315 129 75 50 103 123 74 198 -23 61 -93 107 -159
105 -15 0 -61 -16 -102 -36 -68 -31 -233 -91 -276 -101 -92 -21 -169 -35 -227
-44 -71 -10 -364 -8 -420 3 -16 3 -46 9 -65 13 -19 3 -37 7 -40 8 -3 0 -23 4
-45 9 -73 14 -199 58 -295 101 -106 49 -141 57 -185 42z"/>
</g>
</svg>
