<?xml version="1.0" encoding="UTF-8" standalone="no"?>
<!DOCTYPE svg PUBLIC "-//W3C//DTD SVG 1.1//EN" "http://www.w3.org/Graphics/SVG/1.1/DTD/svg11.dtd">
<svg width="53.87" height="43.61" viewBox="0 0 512 459" fill="none"
    preserveAspectRatio="xMidYMid meet"
    xmlns="http://www.w3.org/2000/svg">
    <path
        d="M224 245.333C224 227.691 209.643 213.333 192 213.333C174.357 213.333 160 227.691 160 245.333C160 262.976 174.357 277.333 192 277.333C209.643 277.333 224 262.976 224 245.333ZM192 256C189.254 255.877 186.66 254.7 184.76 252.713C182.86 250.726 181.8 248.083 181.8 245.333C181.8 242.584 182.86 239.941 184.76 237.954C186.66 235.967 189.254 234.79 192 234.667C197.877 234.667 202.667 239.456 202.667 245.333C202.667 251.211 197.877 256 192 256ZM320 213.333C302.357 213.333 288 227.691 288 245.333C288 262.976 302.357 277.333 320 277.333C337.643 277.333 352 262.976 352 245.333C352 227.691 337.643 213.333 320 213.333ZM320 256C317.254 255.877 314.66 254.7 312.76 252.713C310.86 250.726 309.8 248.083 309.8 245.333C309.8 242.584 310.86 239.941 312.76 237.954C314.66 235.967 317.254 234.79 320 234.667C325.877 234.667 330.667 239.456 330.667 245.333C330.667 251.211 325.877 256 320 256ZM304.459 340.373C274.432 355.808 237.568 355.808 207.541 340.373C206.295 339.733 204.934 339.345 203.537 339.231C202.141 339.116 200.735 339.278 199.401 339.707C198.067 340.136 196.83 340.823 195.761 341.73C194.693 342.637 193.813 343.745 193.173 344.992C192.533 346.239 192.145 347.599 192.031 348.996C191.916 350.393 192.078 351.798 192.507 353.133C192.936 354.467 193.623 355.703 194.53 356.772C195.437 357.84 196.545 358.72 197.792 359.36C215.595 368.501 235.723 373.344 256 373.344C276.277 373.344 296.405 368.512 314.208 359.36C316.632 358.015 318.437 355.779 319.242 353.127C320.048 350.475 319.79 347.613 318.524 345.147C317.258 342.682 315.082 340.805 312.457 339.914C309.833 339.023 306.964 339.188 304.459 340.373Z"
        fill="teal" fillRule="oddeven" />
    <path
        d="M480 213.333H448V181.333C448 151.925 424.075 128 394.667 128H266.667V83.8187C285.013 79.0507 298.667 62.4853 298.667 42.6667C298.667 19.136 279.531 0 256 0C232.469 0 213.333 19.136 213.333 42.6667C213.333 62.4853 226.987 79.0507 245.333 83.8187V128H117.333C87.9253 128 64 151.925 64 181.333V213.333H32C14.3573 213.333 0 227.691 0 245.333V341.333C0 358.976 14.3573 373.333 32 373.333H64V405.333C64 434.741 87.9253 458.667 117.333 458.667H394.667C424.075 458.667 448 434.741 448 405.333V373.333H480C497.643 373.333 512 358.976 512 341.333V245.333C512 227.691 497.643 213.333 480 213.333ZM234.667 42.6667C234.667 30.9013 244.235 21.3333 256 21.3333C267.765 21.3333 277.333 30.9013 277.333 42.6667C277.333 54.432 267.765 64 256 64C244.235 64 234.667 54.432 234.667 42.6667ZM32 352C26.1227 352 21.3333 347.221 21.3333 341.333V245.333C21.3333 239.456 26.1227 234.667 32 234.667H64V352H32ZM426.667 405.333C426.667 422.976 412.309 437.333 394.667 437.333H117.333C99.6907 437.333 85.3333 422.976 85.3333 405.333V181.333C85.3333 163.691 99.6907 149.333 117.333 149.333H394.667C412.309 149.333 426.667 163.691 426.667 181.333V405.333ZM490.667 341.333C490.667 347.221 485.877 352 480 352H448V234.667H480C485.877 234.667 490.667 239.456 490.667 245.333V341.333Z"
         fill="teal" />
</svg>